<?xml version="1.0" standalone="no"?>
<!DOCTYPE svg PUBLIC "-//W3C//DTD SVG 20010904//EN"
 "http://www.w3.org/TR/2001/REC-SVG-20010904/DTD/svg10.dtd">
<svg version="1.0" xmlns="http://www.w3.org/2000/svg"
 width="512.000000pt" height="512.000000pt" viewBox="0 0 512.000000 512.000000"
 preserveAspectRatio="xMidYMid meet">

<g transform="translate(0.000000,512.000000) scale(0.100000,-0.100000)"
fill="#000000" stroke="none">
<path d="M1163 4724 c-19 -10 -33 -24 -33 -35 0 -10 -4 -20 -9 -23 -5 -3 -12
-32 -16 -64 -8 -72 7 -112 63 -174 22 -25 59 -87 86 -148 27 -58 63 -121 81
-140 18 -19 55 -82 82 -140 28 -58 69 -127 92 -155 23 -27 50 -74 61 -103 29
-75 44 -102 86 -153 20 -24 48 -69 61 -99 56 -127 76 -161 102 -180 17 -11 38
-43 51 -77 37 -93 76 -165 110 -203 17 -19 51 -77 76 -129 24 -52 62 -118 84
-146 22 -29 56 -88 74 -131 19 -43 51 -98 71 -121 20 -24 59 -90 86 -148 27
-57 61 -116 76 -130 25 -23 35 -25 116 -25 109 0 117 6 187 155 27 58 67 126
88 150 21 24 50 74 65 112 15 37 54 105 86 150 33 46 71 113 85 150 15 38 42
86 62 108 37 41 102 162 123 227 7 21 25 47 41 58 19 14 48 60 85 137 31 64
70 132 87 152 17 19 52 80 78 135 26 56 57 110 70 121 12 11 49 73 80 138 32
64 71 131 87 147 17 17 35 41 40 53 6 12 30 63 53 112 22 50 55 104 71 121 17
18 41 53 53 79 20 40 22 54 14 93 -5 26 -13 55 -18 64 -6 10 -10 25 -10 33 0
9 -16 23 -35 31 -28 11 -98 14 -357 14 -362 0 -324 7 -438 -82 -46 -36 -63
-59 -100 -134 -25 -50 -58 -107 -74 -125 -16 -19 -51 -80 -78 -137 -27 -57
-64 -120 -83 -141 -19 -21 -45 -60 -56 -87 -51 -117 -61 -136 -90 -169 -31
-35 -32 -35 -114 -35 -69 0 -87 4 -109 21 -27 21 -83 123 -105 190 -6 19 -30
54 -52 77 -22 24 -47 59 -56 80 -33 81 -86 178 -114 210 -16 18 -50 75 -74
125 -37 78 -52 97 -92 125 -26 18 -63 44 -82 57 l-34 25 -326 0 c-279 0 -331
-3 -358 -16z"/>
</g>
</svg>
